<mxfile host="app.diagrams.net" modified="2024-01-30T15:50:08.218Z" agent="Mozilla/5.0 (Windows NT 10.0; Win64; x64; rv:122.0) Gecko/20100101 Firefox/122.0" etag="OB8P2islQmIXdoqw22pa" version="22.1.21" type="github">
  <diagram id="C5RBs43oDa-KdzZeNtuy" name="Page-1">
    <mxGraphModel dx="1050" dy="558" grid="1" gridSize="10" guides="1" tooltips="1" connect="1" arrows="1" fold="1" page="1" pageScale="1" pageWidth="827" pageHeight="1169" math="0" shadow="0">
      <root>
        <mxCell id="WIyWlLk6GJQsqaUBKTNV-0" />
        <mxCell id="WIyWlLk6GJQsqaUBKTNV-1" parent="WIyWlLk6GJQsqaUBKTNV-0" />
        <mxCell id="wHEz4cuOODsCtKLgNVk3-0" value="&lt;div&gt;IP Address =&amp;gt; 192.168.17.130&lt;/div&gt;&lt;div&gt;Module =&amp;gt; some/module/msf&lt;/div&gt;&lt;div&gt;Payload =&amp;gt; unix/cmd/payload&lt;/div&gt;&lt;div&gt;Opts =&amp;gt; RHOSTS&lt;br&gt;&lt;/div&gt;" style="rounded=1;whiteSpace=wrap;html=1;" vertex="1" parent="WIyWlLk6GJQsqaUBKTNV-1">
          <mxGeometry x="20" y="100" width="170" height="90" as="geometry" />
        </mxCell>
        <mxCell id="wHEz4cuOODsCtKLgNVk3-1" value="User" style="text;html=1;align=center;verticalAlign=middle;resizable=0;points=[];autosize=1;strokeColor=none;fillColor=none;" vertex="1" parent="WIyWlLk6GJQsqaUBKTNV-1">
          <mxGeometry x="65" y="48" width="50" height="30" as="geometry" />
        </mxCell>
        <mxCell id="wHEz4cuOODsCtKLgNVk3-2" value="API" style="text;html=1;align=center;verticalAlign=middle;resizable=0;points=[];autosize=1;strokeColor=none;fillColor=none;" vertex="1" parent="WIyWlLk6GJQsqaUBKTNV-1">
          <mxGeometry x="400" y="48" width="40" height="30" as="geometry" />
        </mxCell>
        <mxCell id="wHEz4cuOODsCtKLgNVk3-5" style="edgeStyle=orthogonalEdgeStyle;rounded=0;orthogonalLoop=1;jettySize=auto;html=1;" edge="1" parent="WIyWlLk6GJQsqaUBKTNV-1" source="wHEz4cuOODsCtKLgNVk3-3" target="wHEz4cuOODsCtKLgNVk3-4">
          <mxGeometry relative="1" as="geometry" />
        </mxCell>
        <mxCell id="wHEz4cuOODsCtKLgNVk3-3" value="Check if IP already exploited" style="rounded=1;whiteSpace=wrap;html=1;" vertex="1" parent="WIyWlLk6GJQsqaUBKTNV-1">
          <mxGeometry x="360" y="110" width="120" height="60" as="geometry" />
        </mxCell>
        <mxCell id="wHEz4cuOODsCtKLgNVk3-9" style="edgeStyle=orthogonalEdgeStyle;rounded=0;orthogonalLoop=1;jettySize=auto;html=1;entryX=0;entryY=0.5;entryDx=0;entryDy=0;" edge="1" parent="WIyWlLk6GJQsqaUBKTNV-1" source="wHEz4cuOODsCtKLgNVk3-4" target="wHEz4cuOODsCtKLgNVk3-8">
          <mxGeometry relative="1" as="geometry" />
        </mxCell>
        <mxCell id="wHEz4cuOODsCtKLgNVk3-12" style="edgeStyle=orthogonalEdgeStyle;rounded=0;orthogonalLoop=1;jettySize=auto;html=1;" edge="1" parent="WIyWlLk6GJQsqaUBKTNV-1" source="wHEz4cuOODsCtKLgNVk3-4" target="wHEz4cuOODsCtKLgNVk3-10">
          <mxGeometry relative="1" as="geometry" />
        </mxCell>
        <mxCell id="wHEz4cuOODsCtKLgNVk3-4" value="&lt;div&gt;rpc call&lt;/div&gt;&lt;div&gt;session.list&lt;br&gt;&lt;/div&gt;" style="shape=parallelogram;perimeter=parallelogramPerimeter;whiteSpace=wrap;html=1;fixedSize=1;" vertex="1" parent="WIyWlLk6GJQsqaUBKTNV-1">
          <mxGeometry x="520" y="110" width="120" height="60" as="geometry" />
        </mxCell>
        <mxCell id="wHEz4cuOODsCtKLgNVk3-6" value="Yes" style="text;html=1;align=center;verticalAlign=middle;resizable=0;points=[];autosize=1;strokeColor=none;fillColor=none;" vertex="1" parent="WIyWlLk6GJQsqaUBKTNV-1">
          <mxGeometry x="650" y="80" width="40" height="30" as="geometry" />
        </mxCell>
        <mxCell id="wHEz4cuOODsCtKLgNVk3-7" value="No" style="text;html=1;align=center;verticalAlign=middle;resizable=0;points=[];autosize=1;strokeColor=none;fillColor=none;" vertex="1" parent="WIyWlLk6GJQsqaUBKTNV-1">
          <mxGeometry x="690" y="150" width="40" height="30" as="geometry" />
        </mxCell>
        <mxCell id="wHEz4cuOODsCtKLgNVk3-8" value="return session_id" style="rounded=1;whiteSpace=wrap;html=1;" vertex="1" parent="WIyWlLk6GJQsqaUBKTNV-1">
          <mxGeometry x="700" y="90" width="90" height="40" as="geometry" />
        </mxCell>
        <mxCell id="wHEz4cuOODsCtKLgNVk3-15" style="edgeStyle=orthogonalEdgeStyle;rounded=0;orthogonalLoop=1;jettySize=auto;html=1;entryX=0.5;entryY=0;entryDx=0;entryDy=0;" edge="1" parent="WIyWlLk6GJQsqaUBKTNV-1" source="wHEz4cuOODsCtKLgNVk3-10" target="wHEz4cuOODsCtKLgNVk3-13">
          <mxGeometry relative="1" as="geometry" />
        </mxCell>
        <mxCell id="wHEz4cuOODsCtKLgNVk3-10" value="Check if module and Opts are valid" style="rounded=1;whiteSpace=wrap;html=1;" vertex="1" parent="WIyWlLk6GJQsqaUBKTNV-1">
          <mxGeometry x="670" y="190" width="120" height="60" as="geometry" />
        </mxCell>
        <mxCell id="wHEz4cuOODsCtKLgNVk3-18" style="edgeStyle=orthogonalEdgeStyle;rounded=0;orthogonalLoop=1;jettySize=auto;html=1;entryX=0.5;entryY=0;entryDx=0;entryDy=0;" edge="1" parent="WIyWlLk6GJQsqaUBKTNV-1" source="wHEz4cuOODsCtKLgNVk3-13" target="wHEz4cuOODsCtKLgNVk3-17">
          <mxGeometry relative="1" as="geometry" />
        </mxCell>
        <mxCell id="wHEz4cuOODsCtKLgNVk3-19" style="edgeStyle=orthogonalEdgeStyle;rounded=0;orthogonalLoop=1;jettySize=auto;html=1;" edge="1" parent="WIyWlLk6GJQsqaUBKTNV-1" source="wHEz4cuOODsCtKLgNVk3-13">
          <mxGeometry relative="1" as="geometry">
            <mxPoint x="810" y="320" as="targetPoint" />
          </mxGeometry>
        </mxCell>
        <mxCell id="wHEz4cuOODsCtKLgNVk3-13" value="&lt;div&gt;rpc call&lt;/div&gt;&lt;div&gt;module.search&lt;br&gt;&lt;/div&gt;" style="shape=parallelogram;perimeter=parallelogramPerimeter;whiteSpace=wrap;html=1;fixedSize=1;" vertex="1" parent="WIyWlLk6GJQsqaUBKTNV-1">
          <mxGeometry x="670" y="290" width="120" height="60" as="geometry" />
        </mxCell>
        <mxCell id="wHEz4cuOODsCtKLgNVk3-22" value="" style="edgeStyle=orthogonalEdgeStyle;rounded=0;orthogonalLoop=1;jettySize=auto;html=1;" edge="1" parent="WIyWlLk6GJQsqaUBKTNV-1" source="wHEz4cuOODsCtKLgNVk3-17" target="wHEz4cuOODsCtKLgNVk3-21">
          <mxGeometry relative="1" as="geometry" />
        </mxCell>
        <mxCell id="wHEz4cuOODsCtKLgNVk3-17" value="Set Arguments and Execute" style="rounded=1;whiteSpace=wrap;html=1;" vertex="1" parent="WIyWlLk6GJQsqaUBKTNV-1">
          <mxGeometry x="670" y="390" width="120" height="60" as="geometry" />
        </mxCell>
        <mxCell id="wHEz4cuOODsCtKLgNVk3-21" value="&lt;div&gt;rpc call&lt;/div&gt;&lt;div&gt;module.execute&lt;br&gt;&lt;/div&gt;" style="shape=parallelogram;perimeter=parallelogramPerimeter;whiteSpace=wrap;html=1;fixedSize=1;" vertex="1" parent="WIyWlLk6GJQsqaUBKTNV-1">
          <mxGeometry x="670" y="480" width="120" height="60" as="geometry" />
        </mxCell>
      </root>
    </mxGraphModel>
  </diagram>
</mxfile>
